<svg id="noun_decrease_1916214" xmlns="http://www.w3.org/2000/svg" width="21.492" height="12.47" viewBox="0 0 21.492 12.47">
  <g id="Group_2202" data-name="Group 2202" transform="translate(0)">
    <path id="Path_2046" data-name="Path 2046" d="M24.7,11.155h0a1.5,1.5,0,0,0-1.5,1.5v2.385l-5.7-5.7a1.5,1.5,0,0,0-2.127,0l-3.448,3.448-4.64-4.64a1.5,1.5,0,0,0-2.126,2.126l5.7,5.7a1.5,1.5,0,0,0,2.127,0l3.448-3.448,4.64,4.64H18.681a1.5,1.5,0,0,0-1.5,1.5h0a1.5,1.5,0,0,0,1.5,1.5H24.7a1.5,1.5,0,0,0,1.5-1.5V12.659a1.5,1.5,0,0,0-1.5-1.5Z" transform="translate(-4.707 -7.707)" fill="#cc1331"/>
  </g>
</svg>
