<svg xmlns="http://www.w3.org/2000/svg" width="40.069" height="23.936" viewBox="0 0 40.069 23.936">
  <g id="dashboard_button" transform="translate(-28.9 -130)">
    <g id="noun_581632_cc" transform="translate(28.9 130)">
      <circle id="Ellipse_756" data-name="Ellipse 756" cx="3" cy="3" r="3" transform="translate(0.135 17.034)" fill="#2c77ff"/>
      <circle id="Ellipse_757" data-name="Ellipse 757" cx="3" cy="3" r="3" transform="translate(22.135 15.034)" fill="#2c77ff"/>
      <path id="Path_920" data-name="Path 920" d="M37.578,8a3.343,3.343,0,0,0-3.3,3.375,3.407,3.407,0,0,0,.527,1.811L26.831,22.9a3.191,3.191,0,0,0-1.332-.3,3.247,3.247,0,0,0-2.338,1.005l-6.878-4.109a3.439,3.439,0,0,0,0-.606,3.383,3.383,0,0,0-1.141-2.346,3.255,3.255,0,0,0-2.394-.8,3.351,3.351,0,0,0-2.992,3.566,3.391,3.391,0,0,0,.646,1.8L5.959,25.673a3.192,3.192,0,0,0-1.684-.487,3.375,3.375,0,1,0,0,6.75,3.343,3.343,0,0,0,3.3-3.375,3.4,3.4,0,0,0-.487-1.747l4.524-4.668a3.192,3.192,0,0,0,1.412.343h.215a3.263,3.263,0,0,0,2.481-1.46l6.654,3.989a3.4,3.4,0,0,0-.16.989,3.3,3.3,0,0,0,6.59,0,3.391,3.391,0,0,0-.718-2.082l7.875-9.574a3.191,3.191,0,0,0,1.6.455A3.4,3.4,0,1,0,37.578,8ZM4.275,30.34a1.779,1.779,0,1,1,1.779-1.779A1.779,1.779,0,0,1,4.275,30.34Zm8.848-9.455a1.652,1.652,0,0,1-1.2-.415,1.8,1.8,0,0,1-.574-1.245,1.755,1.755,0,0,1,1.6-1.891h.112a1.644,1.644,0,0,1,1.093.415,1.8,1.8,0,0,1,.606,1.245,1.755,1.755,0,0,1-1.636,1.891Zm12.383,6.878a1.779,1.779,0,1,1,1.7-1.779,1.747,1.747,0,0,1-1.7,1.779ZM37.578,13.154a1.779,1.779,0,1,1,1.7-1.779,1.739,1.739,0,0,1-1.7,1.779Z" transform="translate(-0.9 -8)" fill="#2c77ff"/>
    </g>
  </g>
</svg>
