<svg id="mail_1_" data-name="mail (1)" xmlns="http://www.w3.org/2000/svg" width="18.695" height="13.29" viewBox="0 0 18.695 13.29">
  <g id="Group_24" data-name="Group 24" transform="translate(3.256 6.408)">
    <path id="Path_13" data-name="Path 13" d="M22.625,18.969a.3.3,0,0,1-.206-.082L18.95,15.633a.3.3,0,1,1,.413-.439l3.469,3.254a.3.3,0,0,1-.207.521Z" transform="translate(-10.745 -15.111)"/>
    <path id="Path_14" data-name="Path 14" d="M5.7,18.969a.3.3,0,0,1-.207-.521l3.47-3.254a.3.3,0,1,1,.413.439l-3.47,3.254A.3.3,0,0,1,5.7,18.969Z" transform="translate(-5.402 -15.112)"/>
  </g>
  <path id="Path_15" data-name="Path 15" d="M17.188,17.772H1.507A1.509,1.509,0,0,1,0,16.265V5.989A1.509,1.509,0,0,1,1.507,4.482H17.188a1.509,1.509,0,0,1,1.507,1.507V16.265A1.509,1.509,0,0,1,17.188,17.772ZM1.507,5.085a.905.905,0,0,0-.9.9V16.265a.905.905,0,0,0,.9.9H17.188a.905.905,0,0,0,.9-.9V5.989a.905.905,0,0,0-.9-.9Z" transform="translate(0 -4.482)"/>
  <path id="Path_16" data-name="Path 16" d="M9.609,12.958a1.686,1.686,0,0,1-1.107-.4L.762,5.807a.3.3,0,1,1,.4-.455L8.9,12.1a1.128,1.128,0,0,0,1.421,0L18.05,5.363a.3.3,0,1,1,.4.455l-7.731,6.741A1.684,1.684,0,0,1,9.609,12.958Z" transform="translate(-0.262 -4.798)"/>
</svg>
