<svg id="padlock" xmlns="http://www.w3.org/2000/svg" width="10.805" height="13.29" viewBox="0 0 10.805 13.29">
  <g id="Group_27" data-name="Group 27" transform="translate(0)">
    <path id="Path_17" data-name="Path 17" d="M46.673,13.29h8.858a.976.976,0,0,0,.973-.973V7.023a.976.976,0,0,0-.973-.973h-.685V3.744a3.744,3.744,0,1,0-7.488,0V6.05h-.685a.976.976,0,0,0-.973.973v5.294A.976.976,0,0,0,46.673,13.29Zm1.351-9.546a3.078,3.078,0,0,1,6.156,0V6.05H48.025ZM46.366,7.023a.309.309,0,0,1,.307-.307h8.858a.309.309,0,0,1,.307.307v5.294a.309.309,0,0,1-.307.307H46.673a.309.309,0,0,1-.307-.307Z" transform="translate(-45.7)"/>
    <path id="Path_18" data-name="Path 18" d="M195.857,308.414a1.357,1.357,0,1,0-1.357-1.357A1.359,1.359,0,0,0,195.857,308.414Zm0-2.045a.691.691,0,1,1-.691.691A.692.692,0,0,1,195.857,306.369Z" transform="translate(-190.454 -297.388)"/>
  </g>
</svg>
