<svg xmlns="http://www.w3.org/2000/svg" width="32.34" height="23.862" viewBox="0 0 32.34 23.862">
  <path id="integration_icon" d="M54.086,32.152l-2.86,2.86a7.286,7.286,0,0,0-.034,10.249,4.164,4.164,0,0,1,.443,5.482,4.042,4.042,0,0,1-6.095.375l-2.554-2.554a8.15,8.15,0,0,0-1.022-10.215l-2.928-2.928a1.069,1.069,0,0,0-1.5,0l-1.43,1.43-.136.136-4.052-4.052a1.53,1.53,0,0,0-2.077-.136,1.494,1.494,0,0,0-.1,2.247l4.086,4.086-2.554,2.554-4.086-4.052a1.53,1.53,0,0,0-2.077-.136,1.494,1.494,0,0,0-.1,2.247l4.086,4.086-.136.136-1.43,1.43a1.069,1.069,0,0,0,0,1.5l2.928,2.928A8.071,8.071,0,0,0,40.67,50.845L43.122,53.3a7.428,7.428,0,0,0,10.283.306,7.323,7.323,0,0,0,.2-10.556l-.034-.034a4.049,4.049,0,0,1,0-5.754L56.4,34.433a1.624,1.624,0,0,0,0-2.315A1.655,1.655,0,0,0,54.086,32.152Z" transform="translate(-24.546 -31.662)" fill="#acb9cc"/>
</svg>
