<svg xmlns="http://www.w3.org/2000/svg" width="31" height="31" viewBox="0 0 31 31">
  <g id="noun_960833_cc" transform="translate(110.5 68.5)">
    <g id="Group_1999" data-name="Group 1999" transform="translate(-110 -68)">
      <path id="Path_1884" data-name="Path 1884" d="M17.333,957.362a.715.715,0,0,0-.646.51l-.833,3.594c-.212.08-.418.168-.625.26L12.1,959.769a.687.687,0,0,0-.823.094L7.51,963.633a.688.688,0,0,0-.094.833l1.948,3.125c-.091.2-.181.415-.26.625l-3.583.823A.688.688,0,0,0,5,969.7v5.333a.689.689,0,0,0,.521.646L9.1,976.5c.081.214.177.427.271.635l-1.958,3.125a.687.687,0,0,0,.094.823l3.771,3.771a.687.687,0,0,0,.823.094l3.125-1.958c.207.093.413.18.625.26l.833,3.594a.687.687,0,0,0,.646.521h5.333a.689.689,0,0,0,.646-.521l.833-3.594c.212-.08.418-.168.625-.26l3.125,1.958a.687.687,0,0,0,.823-.094l3.771-3.771a.687.687,0,0,0,.094-.823l-1.958-3.125c.094-.209.19-.421.271-.635l3.583-.823a.687.687,0,0,0,.521-.646V969.7a.687.687,0,0,0-.521-.656l-3.583-.823c-.08-.21-.169-.42-.26-.625l1.948-3.125a.688.688,0,0,0-.094-.833l-3.771-3.771a.687.687,0,0,0-.823-.094l-3.125,1.958c-.206-.092-.413-.18-.625-.26l-.833-3.594a.687.687,0,0,0-.646-.51Zm.521,1.333h4.292l.781,3.406a.68.68,0,0,0,.427.479,10.338,10.338,0,0,1,1.187.49.679.679,0,0,0,.646-.031l2.969-1.854,3.021,3.021-1.854,2.969a.68.68,0,0,0-.031.646A10.149,10.149,0,0,1,29.771,969a.68.68,0,0,0,.49.438l3.406.781V974.5l-3.406.781a.68.68,0,0,0-.49.438,10.145,10.145,0,0,1-.479,1.177.68.68,0,0,0,.031.656l1.854,2.958-3.021,3.021-2.969-1.854a.68.68,0,0,0-.646-.031,10.361,10.361,0,0,1-1.187.49.68.68,0,0,0-.427.479l-.792,3.417H17.865l-.792-3.417a.68.68,0,0,0-.427-.479,10.361,10.361,0,0,1-1.187-.49.679.679,0,0,0-.646.031l-2.969,1.854-3.021-3.021,1.854-2.958a.68.68,0,0,0,.031-.656,10.144,10.144,0,0,1-.479-1.177.68.68,0,0,0-.49-.437L6.333,974.5v-4.281l3.406-.781a.68.68,0,0,0,.49-.437,10.15,10.15,0,0,1,.479-1.177.679.679,0,0,0-.031-.646l-1.854-2.969,3.021-3.021,2.969,1.854a.679.679,0,0,0,.646.031,10.338,10.338,0,0,1,1.187-.49.68.68,0,0,0,.427-.479l.781-3.406ZM20,965.029a7.333,7.333,0,1,0,7.333,7.333A7.343,7.343,0,0,0,20,965.029Zm0,1.333a6,6,0,1,1-6,6A5.99,5.99,0,0,1,20,966.362Z" transform="translate(-5 -957.362)" fill="#acb9cc" stroke="#acb9cc" stroke-width="1"/>
    </g>
  </g>
</svg>
